
        <svg xmlns="http://www.w3.org/2000/svg" xmlns:xlink="http://www.w3.org/1999/xlink" version="1.1" width="3171.4285714285716" 
        height="1578.2920230974635" viewBox="0 0 3171.4285714285716 1578.2920230974635">
			
			<g transform="scale(8.571428571428571) translate(10, 10)">
				<defs id="SvgjsDefs13683"></defs><g id="SvgjsG13684" featureKey="symbolFeature-0" transform="matrix(1.8301027675950463,0,0,1.8301027675950463,71.87409247049875,-67.48869774999157)" fill="#ffffff"><g xmlns="http://www.w3.org/2000/svg"><g><g><g><path d="M63.515,65.159h-2.81c-0.188,0-0.396,0-0.584-0.037c-1.207-0.021-2.395-0.228-3.508-0.567      c-2.902-0.886-5.43-2.677-7.202-5.052c-0.472-0.604-0.867-1.226-1.206-1.885c-0.32-0.604-0.604-1.228-0.811-1.886      c-0.546-1.472-0.83-3.055-0.83-4.714s0.284-3.244,0.83-4.713h5.146c0.358,0,0.697,0.036,1.037,0.113      c-0.848,1.319-1.357,2.902-1.357,4.6c0,1.698,0.51,3.281,1.357,4.599c0.377,0.567,0.812,1.095,1.319,1.565      c0.511,0.49,1.075,0.906,1.716,1.264c1.206,0.661,2.602,1.057,4.092,1.057h3.111h2.317h2.188h5.581      c4.677,0,8.484-3.808,8.484-8.484s-3.808-8.483-8.484-8.483h-5.581c-1.205-2.225-2.846-4.148-4.807-5.657h10.388      c7.805,0,14.141,6.333,14.141,14.14c0,7.808-6.336,14.141-14.141,14.141H63.515z"></path><path d="M58.348,44.854c-0.528-0.491-1.093-0.924-1.734-1.262c-1.205-0.682-2.602-1.057-4.072-1.057h-3.13h-2.3h-2.169h-5.6      c-4.674,0-8.483,3.807-8.483,8.483s3.81,8.484,8.483,8.484h5.6c1.189,2.206,2.828,4.128,4.789,5.656H39.343      c-7.805,0-14.139-6.333-14.139-14.141c0-7.807,6.334-14.14,14.139-14.14h10.389h2.81c0.208,0,0.396,0,0.586,0.037      c1.205,0.019,2.374,0.228,3.486,0.567c2.923,0.886,5.448,2.676,7.203,5.052c0.489,0.603,0.886,1.226,1.225,1.885      c0.319,0.604,0.604,1.226,0.812,1.886c0.547,1.469,0.828,3.054,0.828,4.713s-0.281,3.242-0.828,4.714h-5.147      c-0.356,0-0.717-0.037-1.037-0.115c0.867-1.317,1.357-2.9,1.357-4.599c0-1.697-0.49-3.28-1.357-4.6      C59.291,45.852,58.858,45.325,58.348,44.854z"></path></g></g></g></g></g><g id="SvgjsG13685" featureKey="nameFeature-0" transform="matrix(1.889930592575833,0,0,1.889930592575833,-6.803749953035172,50.22799870838484)" fill="#ffffff"><path d="M3.6 40 l0 -28 l4.92 0 l0 23.52 l14.72 0 l0 4.48 l-19.64 0 z M32.112 12 l4.92 0 l0 28 l-4.92 0 l0 -28 z M67.544 31.36 l0 -19.36 l4.84 0 l0 28 l-4.12 0 l-15.44 -19.92 l0 19.92 l-4.84 0 l0 -28 l4.56 0 z M83.056 40 l0 -28 l4.92 0 l0 23.52 l14.72 0 l0 4.48 l-19.64 0 z M139.328 25.96 c0 7.92 -6.08 14.52 -14.68 14.52 s-14.6 -6.52 -14.6 -14.44 s6.08 -14.52 14.68 -14.52 s14.6 6.52 14.6 14.44 z M134.168 26.04 c0 -5.48 -3.96 -10 -9.52 -10 s-9.44 4.44 -9.44 9.92 s3.96 10 9.52 10 s9.44 -4.44 9.44 -9.92 z M173.72 36.12 c-2.76 2.36 -6.72 4.36 -11.68 4.36 c-8.76 0 -14.52 -6.24 -14.52 -14.44 c0 -7.88 6 -14.52 14.44 -14.52 c4.88 0 7.88 1.36 10.76 3.8 l-3.12 3.72 c-2.16 -1.84 -4.28 -3 -7.84 -3 c-5.16 0 -9.08 4.48 -9.08 9.92 c0 5.8 3.8 10.04 9.52 10.04 c2.64 0 5.04 -0.84 6.76 -2.12 l0 -5.24 l-7.16 0 l0 -4.28 l11.92 0 l0 11.76 z M183.872 12 l4.92 0 l0 28 l-4.92 0 l0 -28 z"></path></g><g id="SvgjsG13686" featureKey="sloganFeature-0" transform="matrix(1.183291964508876,0,0,1.183291964508876,33.035734955233714,140.1132405634328)" fill="#ffffff"><path d="M9.94 20 q-0.52 -0.8 -1.2 -1.68 t-1.43 -1.7 t-1.55 -1.56 t-1.58 -1.28 l0 6.22 l-2.52 0 l0 -13.86 l2.52 0 l0 5.72 q0.66 -0.66 1.38 -1.41 t1.43 -1.52 t1.35 -1.49 t1.16 -1.3 l3.02 0 q-0.66 0.76 -1.4 1.58 t-1.52 1.65 t-1.57 1.65 t-1.55 1.56 q0.84 0.64 1.71 1.49 t1.71 1.82 t1.61 2.02 t1.41 2.09 l-2.98 0 z M19.542 20 l0 -13.86 l8.9 0 l0 2.14 l-6.38 0 l0 3.42 l5.68 0 l0 2.1 l-5.68 0 l0 4.06 l6.86 0 l0 2.14 l-9.38 0 z M36.124 20 l0 -13.86 l8.9 0 l0 2.14 l-6.38 0 l0 3.42 l5.68 0 l0 2.1 l-5.68 0 l0 4.06 l6.86 0 l0 2.14 l-9.38 0 z M56.626 6 q3.02 0 4.63 1.1 t1.61 3.44 q0 1.22 -0.43 2.09 t-1.25 1.42 t-2 0.81 t-2.7 0.26 l-1.26 0 l0 4.88 l-2.52 0 l0 -13.66 q0.88 -0.2 1.95 -0.27 t1.97 -0.07 z M56.806 8.18 q-0.96 0 -1.58 0.06 l0 4.72 l1.22 0 q1.82 0 2.8 -0.51 t0.98 -1.93 q0 -0.68 -0.26 -1.14 t-0.72 -0.72 t-1.09 -0.37 t-1.35 -0.11 z M79.55 6.14 l2.52 0 l0 13.86 l-2.52 0 l0 -13.86 z M93.272 6.14 q0.44 0.76 0.98 1.86 t1.1 2.31 t1.11 2.46 t1.01 2.31 q0.46 -1.06 1 -2.31 t1.1 -2.46 t1.1 -2.31 t0.98 -1.86 l2.28 0 q0.18 1.52 0.34 3.23 t0.29 3.5 t0.24 3.6 t0.19 3.53 l-2.48 0 q-0.08 -2.42 -0.19 -4.98 t-0.33 -4.96 q-0.22 0.46 -0.52 1.1 t-0.64 1.39 t-0.69 1.55 t-0.68 1.55 t-0.61 1.4 t-0.48 1.11 l-1.88 0 q-0.2 -0.46 -0.48 -1.12 t-0.61 -1.41 t-0.68 -1.55 t-0.69 -1.54 t-0.64 -1.39 t-0.52 -1.09 q-0.22 2.4 -0.33 4.96 t-0.19 4.98 l-2.48 0 q0.08 -1.72 0.19 -3.56 t0.24 -3.65 t0.29 -3.51 t0.34 -3.14 l2.34 0 z M116.714 6 q3.02 0 4.63 1.1 t1.61 3.44 q0 1.22 -0.43 2.09 t-1.25 1.42 t-2 0.81 t-2.7 0.26 l-1.26 0 l0 4.88 l-2.52 0 l0 -13.66 q0.88 -0.2 1.95 -0.27 t1.97 -0.07 z M116.894 8.18 q-0.96 0 -1.58 0.06 l0 4.72 l1.22 0 q1.82 0 2.8 -0.51 t0.98 -1.93 q0 -0.68 -0.26 -1.14 t-0.72 -0.72 t-1.09 -0.37 t-1.35 -0.11 z M133.936 6 q3 0 4.59 1.1 t1.59 3.36 q0 2.82 -2.78 3.82 q0.38 0.46 0.86 1.12 t0.98 1.43 t0.96 1.58 t0.82 1.59 l-2.82 0 q-0.38 -0.72 -0.82 -1.45 t-0.89 -1.42 t-0.89 -1.3 t-0.82 -1.09 q-0.28 0.02 -0.48 0.02 l-0.38 0 l-1.22 0 l0 5.24 l-2.52 0 l0 -13.66 q0.92 -0.2 1.96 -0.27 t1.86 -0.07 z M134.116 8.18 q-0.8 0 -1.48 0.06 l0 4.48 l1.1 0 q0.92 0 1.62 -0.1 t1.17 -0.36 t0.71 -0.7 t0.24 -1.12 q0 -0.64 -0.24 -1.08 t-0.69 -0.7 t-1.07 -0.37 t-1.36 -0.11 z M149.838 13.06 q0 1.14 0.28 2.07 t0.81 1.58 t1.29 1.01 t1.72 0.36 q0.94 0 1.7 -0.36 t1.29 -1.01 t0.81 -1.58 t0.28 -2.07 t-0.28 -2.07 t-0.81 -1.58 t-1.29 -1.01 t-1.7 -0.36 q-0.96 0 -1.72 0.36 t-1.29 1.02 t-0.81 1.58 t-0.28 2.06 z M160.658 13.06 q0 1.78 -0.53 3.14 t-1.44 2.27 t-2.13 1.37 t-2.6 0.46 t-2.61 -0.46 t-2.14 -1.37 t-1.45 -2.27 t-0.54 -3.14 t0.54 -3.13 t1.47 -2.27 t2.15 -1.38 t2.58 -0.46 t2.58 0.46 t2.13 1.38 t1.45 2.27 t0.54 3.13 z M172.24 20 q-1.5 -3.24 -2.89 -6.78 t-2.59 -7.08 l2.78 0 q0.48 1.4 0.98 2.86 t1 2.87 t1 2.73 t0.98 2.42 q0.46 -1.1 0.96 -2.41 t1.01 -2.73 t1.01 -2.88 t0.96 -2.86 l2.7 0 q-1.22 3.54 -2.6 7.08 t-2.88 6.78 l-2.42 0 z M186.802 6.14 l2.52 0 l0 13.86 l-2.52 0 l0 -13.86 z M206.844 20 q-0.68 -1.14 -1.52 -2.45 t-1.74 -2.64 t-1.83 -2.58 t-1.77 -2.25 l0 9.92 l-2.48 0 l0 -13.86 l2.06 0 q0.8 0.84 1.72 1.99 t1.85 2.39 t1.8 2.49 t1.55 2.33 l0 -9.2 l2.5 0 l0 13.86 l-2.14 0 z M223.646 8.04 q-2.14 0 -3.27 1.33 t-1.13 3.69 q0 1.12 0.27 2.05 t0.8 1.59 t1.32 1.03 t1.85 0.37 q0.66 0 1.14 -0.05 t0.76 -0.13 l0 -4.98 l2.52 0 l0 6.66 q-0.52 0.2 -1.76 0.44 t-2.86 0.24 q-1.5 0 -2.74 -0.48 t-2.11 -1.4 t-1.35 -2.26 t-0.48 -3.08 t0.53 -3.08 t1.45 -2.27 t2.16 -1.41 t2.64 -0.48 q0.96 0 1.71 0.13 t1.29 0.29 t0.89 0.34 t0.49 0.26 l-0.76 2.06 q-0.6 -0.36 -1.49 -0.61 t-1.87 -0.25 z M238.288 18.68 q0 0.7 -0.47 1.14 t-1.13 0.44 q-0.68 0 -1.14 -0.44 t-0.46 -1.14 t0.46 -1.15 t1.14 -0.45 q0.66 0 1.13 0.45 t0.47 1.15 z"></path></g>
			</g>
		</svg>
	